<?xml version='1.0' encoding='utf-8'?>
<svg xmlns="http://www.w3.org/2000/svg" width="1920" height="1080" viewBox="0 0 1920 1080" data-theme="dark">
  <style>
        @font-face {
            font-family: 'Inter';
            src: url('assets/fonts/Inter-Regular.ttf') format('truetype');
            font-weight: 400;
            font-style: normal;
            font-display: swap;
        }
        @font-face {
            font-family: 'Inter';
            src: url('assets/fonts/Inter-Bold.ttf') format('truetype');
            font-weight: 600;
            font-style: normal;
            font-display: swap;
        }
        @font-face {
            font-family: 'Inter';
            src: url('assets/fonts/Inter-Bold.ttf') format('truetype');
            font-weight: 800;
            font-style: normal;
            font-display: swap;
        }
        
:root {
    --background: #0f172a;
    --panel: #1e293b;
    --primary-text: #f1f5f9;
    --muted-text: #94a3b8;
    --inverse-text: #0f172a;
    --border: #334155;
    --shadow-color: #000000;
    --icon-pad-bg: #1e293b;
    --art-glow: #7dd3fc;
    --art-glow-opacity: 0.18;
    --art-sheen: #ffffff;
    --art-sheen-opacity: 0.18;
    --art-shadow: #000000;
    --art-shadow-opacity: 0.28;
    --art-muted-line: #64748b;
    --art-panel-tint: #1e293b;
    --font-family: 'Inter', 'Segoe UI', 'Kalam', Roboto, Helvetica, Arial, sans-serif;
    --radius-xl: 16px;
    --font-family-headline: 'Inter', 'Segoe UI', 'Kalam', Roboto, Helvetica, Arial, sans-serif;
    --font-family-body: 'Inter', 'Segoe UI', 'Kalam', Roboto, Helvetica, Arial, sans-serif;
    --font-heading: 'Inter', 'Segoe UI', 'Kalam', Roboto, Helvetica, Arial, sans-serif;
    --font-body: 'Inter', 'Segoe UI', 'Kalam', Roboto, Helvetica, Arial, sans-serif;
    --font-size-h1: 56px;
    --font-size-h2: 40px;
    --font-size-h3: 28px;
    --font-size-body: 24px;
    --font-size-caption: 18px;
    --secondary-text: var(--muted-text);
    --panel-border: var(--border);
    --font-weight-normal: 400;
    --font-weight-medium: 500;
    --font-weight-semibold: 600;
    --font-weight-bold: 700;
    --spacing-gutter-pct: 0.07;
    --spacing-top-pct: 0.15;
    --spacing-bottom-pct: 0.07;
    --spacing-title-y-pct: 0.055;
    --accent-1: #93c5fd;
    --accent-2: #86efac;
    --accent-3: #fcd34d;
    --accent-4: #f9a8d4;
    --accent-5: #c4b5fd;
    --accent-6: #a5f3fc;
}
:root[data-theme="dark"] {
    --background: #0f172a;
    --panel: #1e293b;
    --primary-text: #f1f5f9;
    --muted-text: #94a3b8;
    --inverse-text: #0f172a;
    --border: #334155;
    --shadow-color: #000000;
    --icon-pad-bg: #1e293b;
    --art-glow: #7dd3fc;
    --art-glow-opacity: 0.18;
    --art-sheen: #ffffff;
    --art-sheen-opacity: 0.18;
    --art-shadow: #000000;
    --art-shadow-opacity: 0.28;
    --art-muted-line: #64748b;
    --art-panel-tint: #1e293b;
    --accent-1: #93c5fd;
    --accent-2: #86efac;
    --accent-3: #fcd34d;
    --accent-4: #f9a8d4;
    --accent-5: #c4b5fd;
    --accent-6: #a5f3fc;
}
:root[data-theme="light"] {
    --background: #f8fafc;
    --panel: #ffffff;
    --primary-text: #0f172a;
    --muted-text: #64748b;
    --inverse-text: #ffffff;
    --border: #e2e8f0;
    --shadow-color: #000000;
    --icon-pad-bg: #1e293b;
    --art-glow: #0891b2;
    --art-glow-opacity: 0.10;
    --art-sheen: #ffffff;
    --art-sheen-opacity: 0.34;
    --art-shadow: #0f172a;
    --art-shadow-opacity: 0.14;
    --art-muted-line: #94a3b8;
    --art-panel-tint: #f1f5f9;
    --accent-1: #3b82f6;
    --accent-2: #22c55e;
    --accent-3: #f59e0b;
    --accent-4: #ec4899;
    --accent-5: #8b5cf6;
    --accent-6: #06b6d4;
}</style>
  <rect x="0" y="0" width="1.92E+3" height="1.08E+3" fill="#252a34" stroke="none" id="programmatic_background"/>
  <line id="HEADER_DECOR" x1="960.0" x2="1080.0" y1="135.0" y2="135.0" stroke="var(--accent-1)" stroke-width="6" stroke-linecap="round"/>
  <defs>
    <pattern id="svgdbe8b388-napkin-hatch" patternUnits="userSpaceOnUse" width="12" height="12">
      <path d="M -3 12 L 12 -3 M 0 15 L 15 0" fill="none" stroke="var(--primary-text)" stroke-width="1" stroke-opacity="0.05"/>
    </pattern>
    <filter id="svgdbe8b388-shadow" x="-30%" y="-30%" width="160%" height="160%">
      <feDropShadow dx="0" dy="3" stdDeviation="4" flood-color="#000000" flood-opacity="0.10"/>
      <feDropShadow dx="0" dy="10" stdDeviation="16" flood-color="#000000" flood-opacity="0.12"/>
    </filter>
    <radialGradient id="svgdbe8b388-universal-edge-vignette" cx="50%" cy="50%" r="72%">
      <stop offset="0%" stop-color="var(--background)" stop-opacity="0"/>
      <stop offset="72%" stop-color="var(--background)" stop-opacity="0.12"/>
      <stop offset="100%" stop-color="var(--primary-text)" stop-opacity="0.08"/>
    </radialGradient>
    <linearGradient id="svgdbe8b388-universal-surface-sheen" x1="0%" y1="0%" x2="100%" y2="100%">
      <stop offset="0%" stop-color="var(--art-sheen)" stop-opacity="var(--art-sheen-opacity)"/>
      <stop offset="46%" stop-color="var(--art-sheen)" stop-opacity="0.035"/>
      <stop offset="100%" stop-color="var(--art-panel-tint)" stop-opacity="0.14"/>
    </linearGradient>
    <radialGradient id="svgdbe8b388-universal-icon-aura" cx="50%" cy="42%" r="64%">
      <stop offset="0%" stop-color="var(--art-glow)" stop-opacity="var(--art-glow-opacity)"/>
      <stop offset="100%" stop-color="var(--background)" stop-opacity="0"/>
    </radialGradient>
    <filter id="svgdbe8b388-text-glow" x="-20%" y="-20%" width="140%" height="140%">
      <feDropShadow dx="0" dy="0" stdDeviation="2" flood-color="#000000" flood-opacity="0.4"/>
    </filter>
    <marker id="svgdbe8b388-arrowhead" markerWidth="10" markerHeight="7" refX="9" refY="3.5" orient="auto" markerUnits="strokeWidth">
      <polygon points="0 0, 10 3.5, 0 7" fill="var(--muted-text)" opacity="0.6"/>
    </marker>
  </defs>
  <rect id="CANVAS_BG" width="100%" height="100%" fill="var(--background)"/>
  <rect width="100%" height="100%" fill="url(#svgdbe8b388-napkin-hatch)"/>
  <rect id="UNIVERSAL_EDGE_VIGNETTE" width="100%" height="100%" fill="url(#svgdbe8b388-universal-edge-vignette)" opacity="0.62"/>
  <text id="TITLE" x="960.0" y="59" text-anchor="middle" font-weight="800" font-size="56" fill="#f1f5f9" style="font-size: 60px; font-family: Inter, Segoe UI, Kalam, Roboto, Helvetica, Arial, sans-serif; font-weight: 700; letter-spacing:-1.2px;" data-final-font-size="60">
    <tspan x="960.0" dy="68.00px">DIA Paper Evidence Standards</tspan>
  </text>
  <rect id="TITLE_FRAME" x="134" y="59" width="1652" height="103" fill="none"/>
  <g id="FIELD">
    <rect x="190" y="250" width="650" height="270" rx="34" fill="var(--accent-1)" fill-opacity="0.08" stroke="var(--accent-1)" stroke-width="2" stroke-opacity="0.22"/>
    <rect x="1080" y="250" width="650" height="270" rx="34" fill="var(--accent-2)" fill-opacity="0.08" stroke="var(--accent-2)" stroke-width="2" stroke-opacity="0.22"/>
    <rect x="190" y="680" width="650" height="270" rx="34" fill="var(--accent-4)" fill-opacity="0.08" stroke="var(--accent-4)" stroke-width="2" stroke-opacity="0.18"/>
    <rect x="1080" y="680" width="650" height="270" rx="34" fill="var(--accent-5)" fill-opacity="0.08" stroke="var(--accent-5)" stroke-width="2" stroke-opacity="0.18"/>
    <line x1="960" y1="226" x2="960" y2="974" stroke="var(--primary-text)" stroke-width="11" stroke-opacity="0.20"/>
    <line x1="176" y1="600" x2="1744" y2="600" stroke="var(--primary-text)" stroke-width="11" stroke-opacity="0.20"/>
    <path d="M 960 534 L 1028 600 L 960 666 L 892 600 Z" fill="var(--panel)" fill-opacity="0.94" stroke="var(--primary-text)" stroke-width="4" stroke-opacity="0.28"/>
    <circle cx="960" cy="600" r="38" fill="var(--background)" stroke="var(--primary-text)" stroke-width="4"/>
    <g transform="translate(490, 384)">
      <rect id="ITEM_1_BG" x="-280" y="-110" width="560" height="220" rx="30" fill="var(--panel)" fill-opacity="0.95" stroke="var(--accent-1)" stroke-width="3" filter="url(#svgdbe8b388-shadow)"/>
      <rect x="-280" y="-110" width="560" height="220" rx="18" fill="url(#svgdbe8b388-universal-surface-sheen)" opacity="0.84"/>
      <rect x="226" y="-82" width="16" height="164" rx="8" fill="var(--accent-1)" fill-opacity="0.22"/>
      <circle cx="198" cy="-16" r="78" fill="none" stroke="var(--accent-1)" stroke-width="2.5" stroke-opacity="0.14"/>
      <text id="ITEM_1_HEAD" x="-220.0" y="-82.0" text-anchor="start" font-weight="700" font-size="29" fill="var(--accent-4)" data-bg-id="ITEM_1_BG" fill-opacity="1.0" stroke="none" style="font-size: 30px; font-family: Inter, Segoe UI, Kalam, Roboto, Helvetica, Arial, sans-serif; font-weight: 700; letter-spacing:-0.4px;" data-final-font-size="30">
        <tspan x="-220.0" dy="29.91px">Strong Principle</tspan>
      </text>
      <rect id="ITEM_1_HEAD_FRAME" x="-220" y="-82" width="350" height="38" fill="none"/>
      <text id="ITEM_1_BODY" x="-220.0" y="-2.0" text-anchor="start" font-size="20" fill="var(--primary-text)" data-bg-id="ITEM_1_BG" style="font-size: 26px; font-family: Inter, Segoe UI, Kalam, Roboto, Helvetica, Arial, sans-serif; font-weight: 400;" data-final-font-size="26">
        <tspan x="-220.0" dy="26.12px">Intense electromagnetic or</tspan>
        <tspan x="-220.0" dy="29.90px">thermal exposure can</tspan>
        <tspan x="-220.0" dy="29.90px">injure people</tspan>
      </text>
      <rect id="ITEM_1_BODY_FRAME" x="-220" y="-2" width="360" height="102" fill="none"/>
      <circle id="ITEM_1_PAD" cx="198" cy="-16" r="48" fill="var(--icon-pad-bg)" opacity="0.96" fill-opacity="0.9" stroke-width="2" stroke="var(--primary-text)"/>
      <circle id="ITEM_1_PAD_INNER" cx="198" cy="-16" r="37.44" fill="var(--accent-4)" fill-opacity="0.22"/>
      <circle cx="198" cy="-16" r="38" fill="none" stroke="var(--accent-1)" stroke-width="2.5" stroke-dasharray="6 4"/>
      <g id="ITEM_1_ICON" transform="translate(160, -54)" data-icon-size="76" stroke-dasharray="6 4">
        <g transform="translate(-2.533333333333333,-2.8499999999999965) scale(0.15833333333333333)" vector-effect="non-scaling-stroke" fill="#f1f5f9" fill-opacity="1.0" stroke="none">
          <path fill="#f1f5f9" d="M257.375 20.313c-13.418 0-26.07 7.685-35.938 21.75c-9.868 14.064-16.343 34.268-16.343 56.75c0 22.48 6.475 42.654 16.344 56.718c9.868 14.066 22.52 21.75 35.937 21.75c13.418 0 26.038-7.684 35.906-21.75c9.87-14.063 16.376-34.236 16.376-56.718c0-22.48-6.506-42.685-16.375-56.75c-9.867-14.064-22.487-21.75-35.905-21.75zm-150.25 43.062c-20.305.574-23.996 13.892-31.78 29.03c-23.298 45.304-55.564 164.75-55.564 164.75l160.47-5.436l29.125 137.593l-22.78 106.03h149.093l-22.282-106l24.25-137.5l157.53 5.313c.002 0-32.264-119.447-55.56-164.75c-7.787-15.14-11.477-28.457-31.782-29.03c-17.898 0-32.406 15.552-32.406 34.718s14.508 34.72 32.406 34.72c3.728 0 7.258-.884 10.594-2.126l7.937 74.406L309.437 165c-.285.42-.552.867-.843 1.28c-12.436 17.724-30.604 29.69-51.22 29.69c-20.614 0-38.782-11.966-51.218-29.69c-.277-.395-.54-.816-.812-1.218l-116.75 40.032l7.937-74.406c3.337 1.242 6.867 2.125 10.595 2.125c17.898 0 32.406-15.553 32.406-34.72c0-19.165-14.507-34.718-32.405-34.718z" vector-effect="non-scaling-stroke" stroke="none"/>
        </g>
      </g>
    </g>
    <g transform="translate(1430, 384)">
      <rect id="ITEM_2_BG" x="-280" y="-110" width="560" height="220" rx="30" fill="var(--panel)" fill-opacity="0.95" stroke="var(--accent-2)" stroke-width="3" filter="url(#svgdbe8b388-shadow)"/>
      <rect x="-280" y="-110" width="560" height="220" rx="18" fill="url(#svgdbe8b388-universal-surface-sheen)" opacity="0.84"/>
      <rect x="-242" y="-82" width="16" height="164" rx="8" fill="var(--accent-2)" fill-opacity="0.22"/>
      <circle cx="-198" cy="-16" r="78" fill="none" stroke="var(--accent-2)" stroke-width="2.5" stroke-opacity="0.14"/>
      <text id="ITEM_2_HEAD" x="220.0" y="-82.0" text-anchor="end" font-weight="700" font-size="29" fill="var(--accent-5)" data-bg-id="ITEM_2_BG" fill-opacity="1.0" stroke="none" style="font-size: 30px; font-family: Inter, Segoe UI, Kalam, Roboto, Helvetica, Arial, sans-serif; font-weight: 700; letter-spacing:-0.4px;" data-final-font-size="30">
        <tspan x="220.0" dy="29.91px">Investigable Cases</tspan>
      </text>
      <rect id="ITEM_2_HEAD_FRAME" x="-130" y="-82" width="350" height="38" fill="none"/>
      <text id="ITEM_2_BODY" x="220.0" y="-2.0" text-anchor="end" font-size="20" fill="var(--primary-text)" data-bg-id="ITEM_2_BG" style="font-size: 26px; font-family: Inter, Segoe UI, Kalam, Roboto, Helvetica, Arial, sans-serif; font-weight: 400;" data-final-font-size="26">
        <tspan x="220.0" dy="32.10px">Witness symptoms compared with</tspan>
        <tspan x="220.0" dy="29.90px">environmental data</tspan>
      </text>
      <rect id="ITEM_2_BODY_FRAME" x="-140" y="-2" width="360" height="102" fill="none"/>
      <circle id="ITEM_2_PAD" cx="-198" cy="-16" r="48" fill="var(--icon-pad-bg)" opacity="0.96" fill-opacity="0.9" stroke-width="2" stroke="var(--primary-text)"/>
      <circle id="ITEM_2_PAD_INNER" cx="-198" cy="-16" r="37.44" fill="var(--accent-5)" fill-opacity="0.22"/>
      <circle cx="-198" cy="-16" r="38" fill="none" stroke="var(--accent-2)" stroke-width="2.5" stroke-dasharray="6 4"/>
      <g id="ITEM_2_ICON" transform="translate(-236, -54)" data-icon-size="76" stroke-dasharray="6 4">
        <g transform="translate(-5.428571428571429,-5.428571428571429) scale(2.7142857142857144)">
          <path d="M21.74 16.08L8.83 3.17C7.27 1.61 4.74 1.61 3.17 3.17C1.61 4.73 1.61 7.26 3.17 8.83L16.08 21.74C15.69 23.92 16.34 26.24 18.02 27.92C20.75 30.65 25.19 30.65 27.92 27.92C30.65 25.19 30.65 20.75 27.92 18.02C26.24 16.34 23.92 15.7 21.74 16.08Z" fill="#F4F4F4"/>
          <path d="M4.59 7.42002C3.81 6.64002 3.81 5.37 4.59 4.59C5.37 3.81 6.63 3.81 7.42 4.59L21.1439 18.3139C21.7096 18.0919 22.3255 17.97 22.97 17.97C25.7314 17.97 27.97 20.2085 27.97 22.97C27.97 25.7314 25.7314 27.97 22.97 27.97C20.2085 27.97 17.97 25.7314 17.97 22.97C17.97 22.3255 18.0919 21.7096 18.3139 21.1439L4.59 7.42002Z" fill="#F8312F"/>
          <path d="M10.23 4.59998L8.11 6.71997C7.72 7.10997 7.72 7.74997 8.11 8.12997C8.5 8.51997 9.13 8.51997 9.52 8.12997L11.64 6.00998L10.23 4.59998ZM12.35 10.97L14.47 8.84998L15.88 10.26L13.76 12.38C13.37 12.77 12.74 12.77 12.35 12.38C11.96 11.99 11.96 11.36 12.35 10.97ZM16.59 15.21L18.71 13.09L20.12 14.5L18 16.62C17.61 17.01 16.98 17.01 16.59 16.62C16.2 16.23 16.2 15.6 16.59 15.21Z" fill="black"/>
          <path d="M24.97 23.97C26.0745 23.97 26.97 23.0745 26.97 21.97C26.97 20.8654 26.0745 19.97 24.97 19.97C23.8654 19.97 22.97 20.8654 22.97 21.97C22.97 23.0745 23.8654 23.97 24.97 23.97Z" fill="#FF8687"/>
        </g>
      </g>
    </g>
    <g transform="translate(960, 600)">
      <rect id="ITEM_3_BG" x="-310" y="-108" width="620" height="216" rx="32" fill="var(--panel)" fill-opacity="0.96" stroke="var(--accent-3)" stroke-width="3" filter="url(#svgdbe8b388-shadow)"/>
      <rect x="-248" y="-76" width="496" height="12" rx="6" fill="var(--accent-3)" fill-opacity="0.18"/>
      <circle cx="0" cy="-18" r="86" fill="none" stroke="var(--accent-3)" stroke-width="2.5" stroke-opacity="0.14"/>
      <text id="ITEM_3_HEAD" x="0.0" y="-78.0" text-anchor="middle" font-weight="700" font-size="30" fill="var(--accent-6)" data-bg-id="ITEM_3_BG" fill-opacity="1.0" stroke="none" style="font-size: 30px; font-family: Inter, Segoe UI, Kalam, Roboto, Helvetica, Arial, sans-serif; font-weight: 700; letter-spacing:-0.4px;" data-final-font-size="30">
        <tspan x="0.0" dy="29.91px">Not Established</tspan>
      </text>
      <rect id="ITEM_3_HEAD_FRAME" x="-250" y="-78" width="500" height="38" fill="none"/>
      <text id="ITEM_3_BODY" x="0.0" y="2.0" text-anchor="middle" font-size="20" fill="var(--primary-text)" data-bg-id="ITEM_3_BG" style="font-size: 26px; font-family: Inter, Segoe UI, Kalam, Roboto, Helvetica, Arial, sans-serif; font-weight: 400;" data-final-font-size="26">
        <tspan x="0.0" dy="31.18px">Unidentified craft of exotic origin</tspan>
        <tspan x="0.0" dy="29.90px">caused injuries</tspan>
      </text>
      <rect id="ITEM_3_BODY_FRAME" x="-250" y="2" width="500" height="98" fill="none"/>
      <circle id="ITEM_3_PAD" cx="0" cy="-18" r="50" fill="var(--icon-pad-bg)" opacity="0.96" fill-opacity="0.9" stroke-width="2" stroke="var(--primary-text)"/>
      <circle id="ITEM_3_PAD_INNER" cx="0" cy="-18" r="39.00" fill="var(--accent-6)" fill-opacity="0.22"/>
      <circle cx="0" cy="-18" r="40" fill="none" stroke="var(--accent-3)" stroke-width="2.5" stroke-dasharray="6 4"/>
      <g id="ITEM_3_ICON" transform="translate(-40, -58)" data-icon-size="80" stroke-dasharray="6 4">
        <g transform="translate(-19.534883720930228,-19.53488372093023) scale(4.961240310077519)" vector-effect="non-scaling-stroke" stroke-width="2.67" stroke-linecap="round" stroke-linejoin="round" stroke-opacity="1.0">
          <path d="M8 8a3.5 3 0 0 1 3.5 -3h1a3.5 3 0 0 1 3.5 3a3 3 0 0 1 -2 3a3 4 0 0 0 -2 4" vector-effect="non-scaling-stroke" fill="none" stroke="#f1f5f9"/>
          <path d="M12 19l0 .01" vector-effect="non-scaling-stroke" fill="none" stroke="#f1f5f9"/>
        </g>
      </g>
    </g>
    <g transform="translate(490, 816)">
      <rect id="ITEM_4_BG" x="-280" y="-110" width="560" height="220" rx="30" fill="var(--panel)" fill-opacity="0.95" stroke="var(--accent-4)" stroke-width="3" filter="url(#svgdbe8b388-shadow)"/>
      <rect x="-280" y="-110" width="560" height="220" rx="18" fill="url(#svgdbe8b388-universal-surface-sheen)" opacity="0.84"/>
      <rect x="226" y="-82" width="16" height="164" rx="8" fill="var(--accent-4)" fill-opacity="0.22"/>
      <circle cx="198" cy="-16" r="78" fill="none" stroke="var(--accent-4)" stroke-width="2.5" stroke-opacity="0.14"/>
      <text id="ITEM_4_HEAD" x="-220.0" y="-82.0" text-anchor="start" font-weight="700" font-size="29" fill="var(--accent-1)" data-bg-id="ITEM_4_BG" fill-opacity="1.0" stroke="none" style="font-size: 30px; font-family: Inter, Segoe UI, Kalam, Roboto, Helvetica, Arial, sans-serif; font-weight: 700; letter-spacing:-0.4px;" data-final-font-size="30">
        <tspan x="-220.0" dy="29.91px">Speculative Review</tspan>
      </text>
      <rect id="ITEM_4_HEAD_FRAME" x="-220" y="-82" width="350" height="38" fill="none"/>
      <text id="ITEM_4_BODY" x="-220.0" y="-2.0" text-anchor="start" font-size="20" fill="var(--primary-text)" data-bg-id="ITEM_4_BG" style="font-size: 26px; font-family: Inter, Segoe UI, Kalam, Roboto, Helvetica, Arial, sans-serif; font-weight: 400;" data-final-font-size="26">
        <tspan x="-220.0" dy="32.10px">Document acts as threat-and-</tspan>
        <tspan x="-220.0" dy="29.90px">injury review not proof</tspan>
      </text>
      <rect id="ITEM_4_BODY_FRAME" x="-220" y="-2" width="360" height="102" fill="none"/>
      <circle id="ITEM_4_PAD" cx="198" cy="-16" r="48" fill="var(--icon-pad-bg)" opacity="0.96" fill-opacity="0.9" stroke-width="2" stroke="var(--primary-text)"/>
      <circle id="ITEM_4_PAD_INNER" cx="198" cy="-16" r="37.44" fill="var(--accent-1)" fill-opacity="0.22"/>
      <circle cx="198" cy="-16" r="38" fill="none" stroke="var(--accent-4)" stroke-width="2.5" stroke-dasharray="6 4"/>
      <g id="ITEM_4_ICON" transform="translate(160, -54)" data-icon-size="76" stroke-dasharray="6 4">
        <g transform="translate(-4.666666666666667,-6.0) scale(2.1333333333333333)">
          <path d="m16.726,6.632L2.811,30.734c-1.455,2.52.364,5.67,3.274,5.67h27.831c2.91,0,4.728-3.15,3.274-5.67L23.274,6.632c-1.455-2.52-5.092-2.52-6.547,0Z" fill="#ffcd00"/>
          <path d="m20,27.547c-1.044,0-1.89.846-1.89,1.89s.846,1.89,1.89,1.89,1.89-.846,1.89-1.89-.846-1.89-1.89-1.89h0Z" fill="#303d4c"/>
          <path d="m20,25.078c-.884,0-1.6-.716-1.6-1.6v-7.875c0-.884.716-1.6,1.6-1.6s1.6.716,1.6,1.6v7.875c0,.884-.716,1.6-1.6,1.6Z" fill="#303d4c"/>
        </g>
      </g>
    </g>
    <g transform="translate(1430, 816)">
      <rect id="ITEM_5_BG" x="-280" y="-110" width="560" height="220" rx="30" fill="var(--panel)" fill-opacity="0.95" stroke="var(--accent-5)" stroke-width="3" filter="url(#svgdbe8b388-shadow)"/>
      <rect x="-280" y="-110" width="560" height="220" rx="18" fill="url(#svgdbe8b388-universal-surface-sheen)" opacity="0.84"/>
      <rect x="-242" y="-82" width="16" height="164" rx="8" fill="var(--accent-5)" fill-opacity="0.22"/>
      <circle cx="-198" cy="-16" r="78" fill="none" stroke="var(--accent-5)" stroke-width="2.5" stroke-opacity="0.14"/>
      <text id="ITEM_5_HEAD" x="220.0" y="-82.0" text-anchor="end" font-weight="700" font-size="29" fill="var(--accent-2)" data-bg-id="ITEM_5_BG" fill-opacity="1.0" stroke="none" style="font-size: 30px; font-family: Inter, Segoe UI, Kalam, Roboto, Helvetica, Arial, sans-serif; font-weight: 700; letter-spacing:-0.4px;" data-final-font-size="30">
        <tspan x="220.0" dy="29.91px">Guidelines Basis</tspan>
      </text>
      <rect id="ITEM_5_HEAD_FRAME" x="-130" y="-82" width="350" height="38" fill="none"/>
      <text id="ITEM_5_BODY" x="220.0" y="-2.0" text-anchor="end" font-size="20" fill="var(--primary-text)" data-bg-id="ITEM_5_BG" style="font-size: 26px; font-family: Inter, Segoe UI, Kalam, Roboto, Helvetica, Arial, sans-serif; font-weight: 400;" data-final-font-size="26">
        <tspan x="220.0" dy="32.10px">WHO guidelines protect against</tspan>
        <tspan x="220.0" dy="29.90px">harmful localized heating</tspan>
      </text>
      <rect id="ITEM_5_BODY_FRAME" x="-140" y="-2" width="360" height="102" fill="none"/>
      <circle id="ITEM_5_PAD" cx="-198" cy="-16" r="48" fill="var(--icon-pad-bg)" opacity="0.96" fill-opacity="0.9" stroke-width="2" stroke="var(--primary-text)"/>
      <circle id="ITEM_5_PAD_INNER" cx="-198" cy="-16" r="37.44" fill="var(--accent-2)" fill-opacity="0.22"/>
      <circle cx="-198" cy="-16" r="38" fill="none" stroke="var(--accent-5)" stroke-width="2.5" stroke-dasharray="6 4"/>
      <g id="ITEM_5_ICON" transform="translate(-236, -54)" data-icon-size="76" stroke-dasharray="6 4">
        <g transform="translate(-5.380530973451328,-7.0619469026548725) scale(2.690265486725664)">
          <path d="M5 27.99C5 28.75 5.61 29.36 6.37 29.36C7.13 29.36 7.74 28.75 7.74 27.99V26.62H5V27.99ZM24.15 27.99C24.15 28.75 24.76 29.36 25.52 29.36C26.27 29.36 26.89 28.75 26.89 27.99V26.62H24.15V27.99Z" fill="#212121"/>
          <path d="M27 5C27 5.55228 26.5523 6 26 6C25.7251 6 25.4761 5.88908 25.2954 5.70956L7.9667 9.12058L7.77356 8.1394L25.0336 4.74189C25.1474 4.3147 25.537 4 26 4C26.5523 4 27 4.44772 27 5Z" fill="#9B9B9B"/>
          <path d="M6.84005 11.85C7.96671 11.85 8.88005 10.9367 8.88005 9.81002C8.88005 8.68336 7.96671 7.77002 6.84005 7.77002C5.71338 7.77002 4.80005 8.68336 4.80005 9.81002C4.80005 10.9367 5.71338 11.85 6.84005 11.85Z" fill="#D3D3D3"/>
          <path d="M27.38 9.81006H4.63C3.18 9.81006 2 10.9901 2 12.4401V24.6901C2 26.1401 3.18 27.3201 4.63 27.3201H27.38C28.83 27.3201 30.01 26.1401 30.01 24.6901V12.4301C30 10.9801 28.83 9.81006 27.38 9.81006Z" fill="#9B9B9B"/>
          <path d="M26.32 12.76H18.45C17.79 12.76 17.25 13.3 17.25 13.96V18.79C17.25 19.45 17.79 19.99 18.45 19.99H26.32C26.98 19.99 27.52 19.45 27.52 18.79V13.96C27.52 13.3 26.98 12.76 26.32 12.76Z" fill="#83CBFF"/>
          <path d="M19.88 15.83C19.44 15.83 19.09 16.19 19.09 16.62V19.98H20.68V16.62C20.67 16.19 20.32 15.83 19.88 15.83Z" fill="#F8312F"/>
          <path d="M14.83 14.12C15.2 14.12 15.51 13.82 15.51 13.44C15.51 13.07 15.21 12.76 14.83 12.76H5.18C4.81 12.76 4.5 13.06 4.5 13.44C4.5 13.81 4.8 14.12 5.18 14.12H14.83ZM15.51 15.96C15.51 16.34 15.2 16.64 14.83 16.64H5.18C4.8 16.64 4.5 16.33 4.5 15.96C4.5 15.58 4.81 15.28 5.18 15.28H14.83C15.21 15.27 15.51 15.58 15.51 15.96ZM14.83 19.15C15.2 19.15 15.51 18.85 15.51 18.47C15.51 18.1 15.21 17.79 14.83 17.79H5.18C4.81 17.79 4.5 18.09 4.5 18.47C4.5 18.84 4.8 19.15 5.18 19.15H14.83ZM15.51 20.9901C15.51 21.3701 15.2 21.6701 14.83 21.6701H5.18C4.8 21.6701 4.5 21.3601 4.5 20.9901C4.5 20.6101 4.81 20.3101 5.18 20.3101H14.83C15.21 20.3 15.51 20.6101 15.51 20.9901ZM15.51 23.5001C15.51 23.8801 15.2 24.1801 14.83 24.1801H5.18C4.8 24.1801 4.5 23.8701 4.5 23.5001C4.5 23.1201 4.81 22.8201 5.18 22.8201H14.83C15.21 22.8201 15.51 23.1301 15.51 23.5001Z" fill="#212121"/>
          <path d="M21.04 22.9199C21.04 23.6103 20.4804 24.1699 19.79 24.1699C19.0997 24.1699 18.54 23.6103 18.54 22.9199C18.54 22.2296 19.0997 21.6699 19.79 21.6699C20.4804 21.6699 21.04 22.2296 21.04 22.9199ZM26.6201 22.9199C26.6201 23.6103 26.0605 24.1699 25.3701 24.1699C24.6798 24.1699 24.1201 23.6103 24.1201 22.9199C24.1201 22.2296 24.6798 21.6699 25.3701 21.6699C26.0605 21.6699 26.6201 22.2296 26.6201 22.9199Z" fill="#F4F4F4"/>
        </g>
      </g>
    </g>
  </g>
</svg>
