<?xml version='1.0' encoding='utf-8'?>
<svg xmlns="http://www.w3.org/2000/svg" width="1920" height="1080" viewBox="0 0 1920 1080" data-theme="dark">
  <style>
        @font-face {
            font-family: 'Inter';
            src: url('assets/fonts/Inter-Regular.ttf') format('truetype');
            font-weight: 400;
            font-style: normal;
            font-display: swap;
        }
        @font-face {
            font-family: 'Inter';
            src: url('assets/fonts/Inter-Bold.ttf') format('truetype');
            font-weight: 600;
            font-style: normal;
            font-display: swap;
        }
        @font-face {
            font-family: 'Inter';
            src: url('assets/fonts/Inter-Bold.ttf') format('truetype');
            font-weight: 800;
            font-style: normal;
            font-display: swap;
        }
        
:root {
    --background: #0f172a;
    --panel: #1e293b;
    --primary-text: #f1f5f9;
    --muted-text: #94a3b8;
    --inverse-text: #0f172a;
    --border: #334155;
    --shadow-color: #000000;
    --icon-pad-bg: #1e293b;
    --art-glow: #7dd3fc;
    --art-glow-opacity: 0.18;
    --art-sheen: #ffffff;
    --art-sheen-opacity: 0.18;
    --art-shadow: #000000;
    --art-shadow-opacity: 0.28;
    --art-muted-line: #64748b;
    --art-panel-tint: #1e293b;
    --font-family: 'Inter', 'Segoe UI', 'Kalam', Roboto, Helvetica, Arial, sans-serif;
    --radius-xl: 16px;
    --font-family-headline: 'Inter', 'Segoe UI', 'Kalam', Roboto, Helvetica, Arial, sans-serif;
    --font-family-body: 'Inter', 'Segoe UI', 'Kalam', Roboto, Helvetica, Arial, sans-serif;
    --font-heading: 'Inter', 'Segoe UI', 'Kalam', Roboto, Helvetica, Arial, sans-serif;
    --font-body: 'Inter', 'Segoe UI', 'Kalam', Roboto, Helvetica, Arial, sans-serif;
    --font-size-h1: 56px;
    --font-size-h2: 40px;
    --font-size-h3: 28px;
    --font-size-body: 24px;
    --font-size-caption: 18px;
    --secondary-text: var(--muted-text);
    --panel-border: var(--border);
    --font-weight-normal: 400;
    --font-weight-medium: 500;
    --font-weight-semibold: 600;
    --font-weight-bold: 700;
    --spacing-gutter-pct: 0.07;
    --spacing-top-pct: 0.15;
    --spacing-bottom-pct: 0.07;
    --spacing-title-y-pct: 0.055;
    --accent-1: #a5b4fc;
    --accent-2: #34d399;
    --accent-3: #f472b6;
    --accent-4: #fbbf24;
    --accent-5: #38bdf8;
    --accent-6: #c084fc;
    --accent-7: #f87171;
    --accent-8: #2dd4bf;
    --accent-9: #fb923c;
    --accent-10: #e879f9;
}
:root[data-theme="dark"] {
    --background: #0f172a;
    --panel: #1e293b;
    --primary-text: #f1f5f9;
    --muted-text: #94a3b8;
    --inverse-text: #0f172a;
    --border: #334155;
    --shadow-color: #000000;
    --icon-pad-bg: #1e293b;
    --art-glow: #7dd3fc;
    --art-glow-opacity: 0.18;
    --art-sheen: #ffffff;
    --art-sheen-opacity: 0.18;
    --art-shadow: #000000;
    --art-shadow-opacity: 0.28;
    --art-muted-line: #64748b;
    --art-panel-tint: #1e293b;
    --accent-1: #a5b4fc;
    --accent-2: #34d399;
    --accent-3: #f472b6;
    --accent-4: #fbbf24;
    --accent-5: #38bdf8;
    --accent-6: #c084fc;
    --accent-7: #f87171;
    --accent-8: #2dd4bf;
    --accent-9: #fb923c;
    --accent-10: #e879f9;
}
:root[data-theme="light"] {
    --background: #f8fafc;
    --panel: #ffffff;
    --primary-text: #0f172a;
    --muted-text: #64748b;
    --inverse-text: #ffffff;
    --border: #e2e8f0;
    --shadow-color: #000000;
    --icon-pad-bg: #1e293b;
    --art-glow: #0891b2;
    --art-glow-opacity: 0.10;
    --art-sheen: #ffffff;
    --art-sheen-opacity: 0.34;
    --art-shadow: #0f172a;
    --art-shadow-opacity: 0.14;
    --art-muted-line: #94a3b8;
    --art-panel-tint: #f1f5f9;
    --accent-1: #4f46e5;
    --accent-2: #059669;
    --accent-3: #db2777;
    --accent-4: #d97706;
    --accent-5: #0284c7;
    --accent-6: #7c3aed;
    --accent-7: #dc2626;
    --accent-8: #0d9488;
    --accent-9: #ea580c;
    --accent-10: #c026d3;
}</style>
  <rect x="0" y="0" width="1.92E+3" height="1.08E+3" fill="#252a34" stroke="none" id="programmatic_background"/>
  <line id="HEADER_DECOR" x1="960.0" x2="1080.0" y1="135.0" y2="135.0" stroke="var(--accent-1)" stroke-width="6" stroke-linecap="round"/>
  <defs>
    <pattern id="svg734a2f44-napkin-hatch" patternUnits="userSpaceOnUse" width="12" height="12">
      <path d="M -3 12 L 12 -3 M 0 15 L 15 0" fill="none" stroke="var(--primary-text)" stroke-width="1" stroke-opacity="0.05"/>
    </pattern>
    <filter id="svg734a2f44-shadow" x="-30%" y="-30%" width="160%" height="160%">
      <feDropShadow dx="0" dy="2" stdDeviation="3" flood-color="#000000" flood-opacity="0.08"/>
      <feDropShadow dx="0" dy="6" stdDeviation="10" flood-color="#000000" flood-opacity="0.12"/>
    </filter>
    <marker id="svg734a2f44-arrowhead" markerWidth="10" markerHeight="10" refX="9" refY="5" orient="auto">
      <path d="M 0 0 L 10 5 L 0 10 Z" fill="var(--accent-1)"/>
    </marker>
    <filter id="svg734a2f44-text-glow" x="-20%" y="-20%" width="140%" height="140%">
      <feDropShadow dx="0" dy="0" stdDeviation="2" flood-color="#000000" flood-opacity="0.4"/>
    </filter>
    <radialGradient id="svg734a2f44-universal-edge-vignette" cx="50%" cy="50%" r="72%">
      <stop offset="0%" stop-color="var(--background)" stop-opacity="0"/>
      <stop offset="72%" stop-color="var(--background)" stop-opacity="0.12"/>
      <stop offset="100%" stop-color="var(--primary-text)" stop-opacity="0.08"/>
    </radialGradient>
    <linearGradient id="svg734a2f44-universal-surface-sheen" x1="0%" y1="0%" x2="100%" y2="100%">
      <stop offset="0%" stop-color="var(--art-sheen)" stop-opacity="var(--art-sheen-opacity)"/>
      <stop offset="46%" stop-color="var(--art-sheen)" stop-opacity="0.035"/>
      <stop offset="100%" stop-color="var(--art-panel-tint)" stop-opacity="0.14"/>
    </linearGradient>
    <radialGradient id="svg734a2f44-universal-icon-aura" cx="50%" cy="42%" r="64%">
      <stop offset="0%" stop-color="var(--art-glow)" stop-opacity="var(--art-glow-opacity)"/>
      <stop offset="100%" stop-color="var(--background)" stop-opacity="0"/>
    </radialGradient>
  </defs>
  <rect width="100%" height="100%" fill="var(--background)" id="CANVAS_BG"/>
  <rect width="100%" height="100%" fill="url(#svg734a2f44-napkin-hatch)"/>
  <rect id="UNIVERSAL_EDGE_VIGNETTE" width="100%" height="100%" fill="url(#svg734a2f44-universal-edge-vignette)" opacity="0.62"/>
  <text id="TITLE" x="960.0" y="59" text-anchor="middle" font-weight="700" font-size="72" fill="#f1f5f9" style="font-size: 60px; font-family: Inter, Segoe UI, Kalam, Roboto, Helvetica, Arial, sans-serif; font-weight: 700; letter-spacing:-1.2px;" data-final-font-size="60">
    <tspan x="960.0" dy="68.00px">Skinwalker Ranch Scope</tspan>
  </text>
  <rect id="TITLE_FRAME" x="134" y="59" width="1652" height="103" fill="none"/>
  <g id="DIAGRAM_SCALER" transform="translate(28.8, 27.0) scale(0.97)">
    <path d="M 960 360 L 960 450" stroke="var(--muted-text)" stroke-width="3.0" fill="none" opacity="0.52"/>
    <path d="M 160.0 450 L 1760.0 450" stroke="var(--muted-text)" stroke-width="3.0" fill="none" opacity="0.52"/>
    <path d="M 160.0 450 L 160.0 570" stroke="var(--muted-text)" stroke-width="3.0" fill="none" opacity="0.52"/>
    <path d="M 693.3 450 L 693.3 570" stroke="var(--muted-text)" stroke-width="3.0" fill="none" opacity="0.52"/>
    <path d="M 1226.7 450 L 1226.7 570" stroke="var(--muted-text)" stroke-width="3.0" fill="none" opacity="0.52"/>
    <path d="M 1760.0 450 L 1760.0 570" stroke="var(--muted-text)" stroke-width="3.0" fill="none" opacity="0.52"/>
    <g transform="translate(960.0, 270.0)">
      <rect id="ITEM_1_BG" x="-210" y="-90" width="420" height="180" rx="24" fill="var(--panel)" fill-opacity="0.86" stroke="var(--primary-text)" stroke-width="2.6"/>
      <circle id="ITEM_1_PAD" cx="0" cy="40" r="42" fill="var(--icon-pad-bg)" stroke="var(--primary-text)" opacity="0.9" fill-opacity="0.9" stroke-width="2"/>
      <circle id="ITEM_1_PAD_INNER" cx="0" cy="40" r="32.76" fill="var(--accent-5)" fill-opacity="0.22"/>
      <circle cx="0" cy="40" r="33.6" fill="none" stroke="var(--accent-1)" stroke-width="3" stroke-dasharray="6 4"/>
      <g id="ITEM_1_ICON" transform="translate(-36.0, 4.0)" data-icon-size="72">
        <g transform="translate(-2.4,-2.4) scale(0.15)" vector-effect="non-scaling-stroke" fill="#f1f5f9" fill-opacity="1.0" stroke="none">
          <path fill="#f1f5f9" d="M36.078 16L16 35.55v50.247L87.684 16zm121.83 0l-97.834 95.26c8.838-.48 17.72-.946 27.207-1.367L183.71 16h-25.8zm107.768 0L217.72 62.693c11.73-7.19 24.684-14.537 37.987-21.455c17.973-9.346 36.334-17.656 52.807-23.023c2.466-.804 4.865-1.53 7.234-2.215zm105.627 0l-4.29 3.432c56.944 23.005 97.62 63.682 120.628 120.627l8.16-10.2C475.674 75.84 440.51 38.356 388.93 16H371.3zm55.894 0C455.86 34.214 478.884 58.318 496 88.027V63.582C484.442 45.14 469.57 29.234 451.488 16zm52.176 0A192 192 0 0 1 496 33.447V16zM341.316 30.266c-6.124-.108-15.98 1.4-27.226 5.064c-14.994 4.886-32.696 12.84-50.078 21.88a520 520 0 0 0-18.948 10.384c27.085 5.188 54.39 17.866 79.737 35.3l69.516-49.654c-14.42-8.99-30.465-16.435-48.207-22.35c-1.126-.374-2.752-.588-4.794-.624m68.713 33.87l-69.99 49.995a318 318 0 0 1 28.007 24.895a318 318 0 0 1 24.902 28.002l49.988-69.986a181.6 181.6 0 0 0-32.91-32.905zm-193.41 18.08c-19.394.162-36.698 5.932-49.39 18.626a58.5 58.5 0 0 0-6.992 8.447c7.737.345 15.336.865 22.698 1.606c8.6-7.025 20.286-10.66 34.26-10.71c9.396-.034 19.82 1.55 31.025 4.802c29.88 8.675 64.076 29.196 94.372 59.492c30.296 30.297 50.82 64.496 59.494 94.374c8.674 29.877 5.474 54.205-8.582 68.26a40.5 40.5 0 0 1-7.076 5.63a235 235 0 0 1-5.32 22.106c9.518-3 18.04-7.923 25.124-15.006c20.31-20.31 22.893-52.42 13.14-86.01c-9.36-32.248-30.12-66.993-60.245-98.2l-.09-.093l-.057-.056a308 308 0 0 0-3.66-3.73h-.002a308 308 0 0 0-3.726-3.66l-.06-.06a2 2 0 0 1-.1-.093c-31.205-30.12-65.946-50.88-98.192-60.24c-12.596-3.658-24.985-5.58-36.62-5.483zM453.83 112.76l-49.652 69.515c17.437 25.354 30.1 52.67 35.285 79.762a519 519 0 0 0 10.4-18.974c9.04-17.382 16.992-35.084 21.877-50.078c4.886-14.993 5.94-27.516 4.44-32.017c-5.914-17.742-13.36-33.785-22.35-48.207zm-315.766 14.306c-24.424-.103-49.52 1.074-72.78 2.217c7.69 2.09 14.93 3.963 22.872 6.343c29.69 8.9 59.69 19.512 74.75 40.217l12.465 17.137l-20.988-2.93c-45.902-6.41-74.37 5.044-101.47 15.693c33.77 7.288 58.506 15.248 87.683 36.73l13.96 10.278l-16.44 5.504C78.56 278.195 47.45 315.047 16 357.834v22.143c9.58-5.07 19.283-10.596 29.057-15.934c27.153-14.832 55.85-28.346 85.502-19.572l7.84 2.32l-1.56 8.028c-6.803 35.01-28.027 91.445-48.008 141.182h15.455c44.07-50.768 93.33-113.807 108.994-146.596l7.16-14.984l8.644 14.178c5.784 9.484 3.667 19.766.973 31.724s-7.28 25.69-12.178 39.88c-6.224 18.024-12.536 36.71-16.552 52.19c12.538-12.48 25.598-29.23 36.842-46.912c16.8-26.42 29.886-55.1 33.586-72.515l5.015-23.613l11.668 21.134c12.356 22.385 10.967 52.3 6.996 84.723c-2.37 19.346-5.82 39.638-8.854 59.653c14.87-22.31 32.57-48.36 48.307-77.36c24.843-45.79 43.262-96.883 34.79-143.876c-2.723-15.107-13.146-34.003-28.327-52.83c-21.165 6.466-42.44 20.892-62.875 40.822c17.09-29.95 23.5-49.964 37.183-65.225c-24.578 10.682-57.176 29.572-91.263 62.765c19.654-25.258 40.095-64.07 53.935-91.478c-20.372 15.64-51.45 31.377-71.21 43.81c9.8-15.11 30.47-43.68 36.517-66.957c-10.983-4.976-21.758-8.688-31.87-10.765l-.148-.032l-.15-.035c-20.223-4.873-46.176-6.523-73.404-6.64zM31.73 138.86L16 154.177V179.3l35.928-34.984c-7.012-1.842-13.946-3.663-20.2-5.455zm82.047 25.04l-8.13 7.916a180 180 0 0 1 21.603-1.504c-4.143-2.217-8.685-4.355-13.473-6.412M52.14 223.916L16 259.106v50.244l75.926-73.928C79.87 230.577 67.19 227.2 52.14 223.916M496 287.72L346.97 432.83c-13.02 23.235-27.113 44.683-39.44 63.172h26.163L496 337.965zm-384.45 72.075c-3.92 0-7.91.426-11.972 1.203L16 442.378V467.5l97.834-95.258c1.202-4.276 2.285-8.36 3.193-12.162a52 52 0 0 0-5.476-.285zM496 368.81L365.373 496h25.8L496 393.934zm-295.277 45.924l-27.32 26.602c-14.17 18.31-29.498 36.993-44.624 54.664h14.282l44.74-43.56c3.907-12.385 8.606-25.225 12.92-37.706z" vector-effect="non-scaling-stroke" stroke="none"/>
        </g>
      </g>
      <text id="ITEM_1_HEAD" x="0.0" y="-80.0" text-anchor="middle" font-weight="bold" font-size="36" fill="var(--accent-5)" data-bg-id="ITEM_1_BG" fill-opacity="1.0" stroke="none" style="font-size: 30px; font-family: Inter, Segoe UI, Kalam, Roboto, Helvetica, Arial, sans-serif; font-weight: 700; letter-spacing:-0.4px;" data-final-font-size="30">
        <tspan x="0.0" dy="34.80px">Surface</tspan>
      </text>
      <rect id="ITEM_1_HEAD_FRAME" x="-180" y="-80" width="360" height="45" fill="none"/>
    </g>
    <g transform="translate(160.0, 720)">
      <rect id="ITEM_2_BG" x="-180.0" y="-150" width="360" height="390" rx="24" fill="var(--accent-6)" fill-opacity="0.48" stroke="var(--accent-1)" stroke-width="2.6"/>
      <text id="ITEM_2_HEAD" x="0.0" y="8.0" text-anchor="middle" font-weight="bold" font-size="30" fill="var(--primary-text)" data-bg-id="ITEM_2_BG" fill-opacity="1.0" stroke="none" style="font-size: 30px; font-family: Inter, Segoe UI, Kalam, Roboto, Helvetica, Arial, sans-serif; font-weight: 700; letter-spacing:-0.4px;" data-final-font-size="30">
        <tspan x="0.0" dy="49.55px">Near Surface</tspan>
      </text>
      <rect id="ITEM_2_HEAD_FRAME" x="-150.0" y="8" width="300" height="70" fill="none"/>
      <text id="ITEM_2_BODY" x="0.0" y="78.0" text-anchor="middle" font-size="23" fill="var(--primary-text)" opacity="0.94" data-bg-id="ITEM_2_BG" style="font-size: 26px; font-family: Inter, Segoe UI, Kalam, Roboto, Helvetica, Arial, sans-serif; font-weight: 400;" data-final-font-size="26">
        <tspan x="0.0" dy="46.13px">Reports of shadow figures</tspan>
        <tspan x="0.0" dy="29.90px">and creatures</tspan>
      </text>
      <rect id="ITEM_2_BODY_FRAME" x="-174" y="78" width="348" height="158" fill="none"/>
      <circle id="ITEM_2_PAD" cx="0" cy="-45.0" r="62" fill="var(--icon-pad-bg)" stroke="var(--background)" stroke-width="2" stroke-opacity="0.65" opacity="0.94" fill-opacity="0.9"/>
      <circle id="ITEM_2_PAD_INNER" cx="0" cy="-45.0" r="48.36" fill="var(--accent-6)" fill-opacity="0.22"/>
      <circle cx="0" cy="-45.0" r="49.6" fill="none" stroke="var(--accent-1)" stroke-width="3" stroke-dasharray="6 4"/>
      <g id="ITEM_2_ICON" transform="translate(-48.0, -93.0)" data-icon-size="96" stroke-dasharray="6 4">
        <g transform="translate(-10.452521739130434,-1.201043478260869) scale(4.485565217391304)" vector-effect="non-scaling-stroke" stroke-width="2.86" stroke-linecap="round" stroke-linejoin="round" stroke-opacity="1.0">
          <path d="M3 12C3 16 5 21 11 21" stroke="#f1f5f9" vector-effect="non-scaling-stroke" fill="none"/>
          <path d="M10 6C10 10 12 15 18 15" stroke="#f1f5f9" vector-effect="non-scaling-stroke" fill="none"/>
          <path d="M3 8.5L3 6.5" stroke="#f1f5f9" vector-effect="non-scaling-stroke" fill="none"/>
          <path d="M10 3L10 1" stroke="#f1f5f9" vector-effect="non-scaling-stroke" fill="none"/>
          <path d="M3 12L10 6" stroke="#f1f5f9" vector-effect="non-scaling-stroke" fill="none"/>
          <path d="M11 21L18 15" stroke="#f1f5f9" vector-effect="non-scaling-stroke" fill="none"/>
          <path d="M14.5 21H16.5" stroke="#f1f5f9" vector-effect="non-scaling-stroke" fill="none"/>
          <path d="M21 15H23" stroke="#f1f5f9" vector-effect="non-scaling-stroke" fill="none"/>
        </g>
      </g>
    </g>
    <g transform="translate(693.3, 720)">
      <rect id="ITEM_3_BG" x="-180.0" y="-150" width="360" height="390" rx="24" fill="var(--accent-7)" fill-opacity="0.48" stroke="var(--accent-2)" stroke-width="2.6"/>
      <text id="ITEM_3_HEAD" x="0.0" y="8.0" text-anchor="middle" font-weight="bold" font-size="30" fill="var(--primary-text)" data-bg-id="ITEM_3_BG" fill-opacity="1.0" stroke="none" style="font-size: 30px; font-family: Inter, Segoe UI, Kalam, Roboto, Helvetica, Arial, sans-serif; font-weight: 700; letter-spacing:-0.4px;" data-final-font-size="30">
        <tspan x="0.0" dy="49.55px">Mid Depth</tspan>
      </text>
      <rect id="ITEM_3_HEAD_FRAME" x="-150.0" y="8" width="300" height="70" fill="none"/>
      <text id="ITEM_3_BODY" x="0.0" y="78.0" text-anchor="middle" font-size="23" fill="var(--primary-text)" opacity="0.94" data-bg-id="ITEM_3_BG" style="font-size: 26px; font-family: Inter, Segoe UI, Kalam, Roboto, Helvetica, Arial, sans-serif; font-weight: 400;" data-final-font-size="26">
        <tspan x="0.0" dy="46.13px">Remote viewing and</tspan>
        <tspan x="0.0" dy="29.90px">consciousness anomalies</tspan>
      </text>
      <rect id="ITEM_3_BODY_FRAME" x="-174" y="78" width="348" height="158" fill="none"/>
      <circle id="ITEM_3_PAD" cx="0" cy="-45.0" r="62" fill="var(--icon-pad-bg)" stroke="var(--background)" stroke-width="2" stroke-opacity="0.65" opacity="0.94" fill-opacity="0.9"/>
      <circle id="ITEM_3_PAD_INNER" cx="0" cy="-45.0" r="48.36" fill="var(--accent-7)" fill-opacity="0.22"/>
      <circle cx="0" cy="-45.0" r="49.6" fill="none" stroke="var(--accent-2)" stroke-width="3" stroke-dasharray="6 4"/>
      <g id="ITEM_3_ICON" transform="translate(-48.0, -93.0)" data-icon-size="96" stroke-dasharray="6 4">
        <g transform="translate(-8.91929203539823,-6.351504424778761) scale(3.423716814159292)">
          <path d="M16.25 29.25C16.25 29.6642 15.9143 30 15.5 30C15.0858 30 14.75 29.6642 14.75 29.25V18.2847L6.35413 29.6945C6.10863 30.0281 5.63916 30.0996 5.30554 29.8541C4.97192 29.6086 4.90047 29.1391 5.14597 28.8055L13.8421 16.9877C13.3669 16.9119 13 16.4964 13 16C13 15.4505 13.4497 15 13.9983 15H14.75V11.75C14.75 11.3358 15.0858 11 15.5 11C15.9143 11 16.25 11.3358 16.25 11.75V15H17.0018C17.5504 15 18 15.4505 18 16C18 16.421 17.7361 16.7839 17.366 16.9306L26.1041 28.8055C26.3496 29.1391 26.2782 29.6086 25.9446 29.8541C25.6109 30.0996 25.1415 30.0281 24.896 29.6945L16.25 17.9449V29.25Z" fill="#7167A4"/>
          <path d="M3.22683 4.27809C2.6088 5.92946 3.30622 7.78583 4.80973 8.60757L5.74923 8.95918L7.99999 8.00013L8.99999 4.00013L8.19939 2.40199L7.26328 2.05165C5.5897 1.68436 3.84485 2.62671 3.22683 4.27809Z" fill="#AEDDFF"/>
          <path d="M22.8343 8.94678L27.5555 10.7137L29 13.0001L28 15.0001L25.7687 15.3837L21.0817 13.6296L20 10.5001L22.8343 8.94678Z" fill="#D3D3D3"/>
          <path d="M8.59557 3.94216L11.9373 3.80078L23.1846 8.01009L20.731 14.566L9.48157 10.3559L7.48633 7.72365L8.59557 3.94216Z" fill="#BEBEBE"/>
          <path d="M11.9459 3.80389L8.19965 2.40186L5.74609 8.95777L9.49233 10.3598L11.9459 3.80389Z" fill="#5235A6"/>
          <path d="M29.39 11.4001L27.5169 10.6991L25.7644 15.3819L27.6375 16.0829C28.1547 16.2765 28.731 16.0141 28.9246 15.4969L29.9761 12.6872C30.1697 12.1699 29.9073 11.5937 29.39 11.4001Z" fill="#5235A6"/>
        </g>
      </g>
    </g>
    <g transform="translate(1226.7, 720)">
      <rect id="ITEM_4_BG" x="-180.0" y="-150" width="360" height="390" rx="24" fill="var(--accent-8)" fill-opacity="0.48" stroke="var(--accent-3)" stroke-width="2.6"/>
      <text id="ITEM_4_HEAD" x="0.0" y="8.0" text-anchor="middle" font-weight="bold" font-size="30" fill="var(--primary-text)" data-bg-id="ITEM_4_BG" fill-opacity="1.0" stroke="none" style="font-size: 30px; font-family: Inter, Segoe UI, Kalam, Roboto, Helvetica, Arial, sans-serif; font-weight: 700; letter-spacing:-0.4px;" data-final-font-size="30">
        <tspan x="0.0" dy="49.55px">Deep Layer</tspan>
      </text>
      <rect id="ITEM_4_HEAD_FRAME" x="-150.0" y="8" width="300" height="70" fill="none"/>
      <text id="ITEM_4_BODY" x="0.0" y="78.0" text-anchor="middle" font-size="23" fill="var(--primary-text)" opacity="0.94" data-bg-id="ITEM_4_BG" style="font-size: 26px; font-family: Inter, Segoe UI, Kalam, Roboto, Helvetica, Arial, sans-serif; font-weight: 400;" data-final-font-size="26">
        <tspan x="0.0" dy="46.13px">Paranormal activity at private</tspan>
        <tspan x="0.0" dy="29.90px">Utah property</tspan>
      </text>
      <rect id="ITEM_4_BODY_FRAME" x="-174" y="78" width="348" height="158" fill="none"/>
      <circle id="ITEM_4_PAD" cx="0" cy="-45.0" r="62" fill="var(--icon-pad-bg)" stroke="var(--background)" stroke-width="2" stroke-opacity="0.65" opacity="0.94" fill-opacity="0.9"/>
      <circle id="ITEM_4_PAD_INNER" cx="0" cy="-45.0" r="48.36" fill="var(--accent-8)" fill-opacity="0.22"/>
      <circle cx="0" cy="-45.0" r="49.6" fill="none" stroke="var(--accent-3)" stroke-width="3" stroke-dasharray="6 4"/>
      <g id="ITEM_4_ICON" transform="translate(-48.0, -93.0)" data-icon-size="96" stroke-dasharray="6 4">
        <g transform="translate(-7.268571428571428,-5.541428571428569) scale(3.454285714285714)">
          <path fill-rule="evenodd" clip-rule="evenodd" d="M10 8.83354V3.52275C10 3.23233 9.75879 3 9.46734 3H6.54271C6.24121 3 6 3.23233 6 3.52275V12.1687L5 13.0025V29.0025H27V14.0025L16.07 3.77246L10 8.83354Z" fill="#F3C07B"/>
          <path d="M15.92 27.0025H8.08C8.04 27.0025 8 26.9625 8 26.9225V16.3925C8 15.6425 8.61 15.0325 9.36 15.0325H14.65C15.4 15.0325 16.01 15.6425 16.01 16.3925V26.9225C16 26.9625 15.96 27.0025 15.92 27.0025Z" fill="#8C5543"/>
          <path d="M14.5 21.0024C14.7761 21.0024 15 20.7786 15 20.5024C15 20.2263 14.7761 20.0024 14.5 20.0024C14.2239 20.0024 14 20.2263 14 20.5024C14 20.7786 14.2239 21.0024 14.5 21.0024Z" fill="#402A32"/>
          <path d="M15.96 28.0024H8C7.45 28.0024 7 27.5524 7 27.0024C7 26.4524 7.45 26.0024 8 26.0024H15.96C16.51 26.0024 16.96 26.4524 16.96 27.0024C16.96 27.5524 16.51 28.0024 15.96 28.0024Z" fill="#D3D3D3"/>
          <path d="M30 29.0024H2V28.9124C2 27.8524 2.85 27.0024 3.91 27.0024H28.09C29.14 27.0024 30 27.8524 30 28.9124V29.0024Z" fill="#00F397"/>
          <path d="M16.88 2.3525L29.64 14.9225C30.12 15.3925 30.12 16.1525 29.64 16.6125C29.17 17.0825 28.4 17.0825 27.92 16.6125L16.02 4.8925L4.08 16.6525C3.61 17.1225 2.84 17.1225 2.36 16.6525C1.88 16.1825 1.88 15.4225 2.36 14.9525L15.16 2.3525C15.63 1.8825 16.4 1.8825 16.88 2.3525Z" fill="#F8312F"/>
          <path d="M23.14 21.0024H18.86C18.38 21.0024 18 20.6224 18 20.1424V15.8624C18 15.3924 18.38 15.0024 18.86 15.0024H23.14C23.61 15.0024 24 15.3824 24 15.8624V20.1424C24 20.6224 23.62 21.0024 23.14 21.0024Z" fill="#83CBFF"/>
        </g>
      </g>
    </g>
    <g transform="translate(1760.0, 720)">
      <rect id="ITEM_5_BG" x="-180.0" y="-150" width="360" height="390" rx="24" fill="var(--accent-9)" fill-opacity="0.48" stroke="var(--accent-4)" stroke-width="2.6"/>
      <text id="ITEM_5_HEAD" x="0.0" y="8.0" text-anchor="middle" font-weight="bold" font-size="30" fill="var(--primary-text)" data-bg-id="ITEM_5_BG" fill-opacity="1.0" stroke="none" style="font-size: 30px; font-family: Inter, Segoe UI, Kalam, Roboto, Helvetica, Arial, sans-serif; font-weight: 700; letter-spacing:-0.4px;" data-final-font-size="30">
        <tspan x="0.0" dy="49.55px">Foundation</tspan>
      </text>
      <rect id="ITEM_5_HEAD_FRAME" x="-150.0" y="8" width="300" height="70" fill="none"/>
      <text id="ITEM_5_BODY" x="0.0" y="78.0" text-anchor="middle" font-size="23" fill="var(--primary-text)" opacity="0.94" data-bg-id="ITEM_5_BG" style="font-size: 26px; font-family: Inter, Segoe UI, Kalam, Roboto, Helvetica, Arial, sans-serif; font-weight: 400;" data-final-font-size="26">
        <tspan x="0.0" dy="46.13px">AARO noted lack of substantive</tspan>
        <tspan x="0.0" dy="29.90px">UAP cases</tspan>
      </text>
      <rect id="ITEM_5_BODY_FRAME" x="-174" y="78" width="348" height="158" fill="none"/>
      <circle id="ITEM_5_PAD" cx="0" cy="-45.0" r="62" fill="var(--icon-pad-bg)" stroke="var(--background)" stroke-width="2" stroke-opacity="0.65" opacity="0.94" fill-opacity="0.9"/>
      <circle id="ITEM_5_PAD_INNER" cx="0" cy="-45.0" r="48.36" fill="var(--accent-9)" fill-opacity="0.22"/>
      <circle cx="0" cy="-45.0" r="49.6" fill="none" stroke="var(--accent-4)" stroke-width="3" stroke-dasharray="6 4"/>
      <g id="ITEM_5_ICON" transform="translate(-48.0, -93.0)" data-icon-size="96" stroke-dasharray="6 4">
        <g transform="translate(-7.268571428571428,-10.722857142857139) scale(3.454285714285714)">
          <path d="M15.385 7.39062L12.9075 4.915C12.3219 4.32875 11.5275 4 10.6987 4H4.125C2.95125 4 2 4.95125 2 6.125V13.5H12.985H30V10.1375C30 8.96375 29.0488 8.0125 27.875 8.0125H16.8875C16.3237 8.0125 15.7838 7.78875 15.385 7.39062Z" fill="#FFB02E"/>
          <path d="M27.875 30H4.125C2.95125 30 2 29.0545 2 27.8878V13.1122C2 11.9455 2.95125 11 4.125 11H27.875C29.0488 11 30 11.9455 30 13.1122V27.8878C30 29.0545 29.0488 30 27.875 30Z" fill="#FCD53F"/>
        </g>
      </g>
    </g>
  </g>
</svg>
