<?xml version='1.0' encoding='utf-8'?>
<svg xmlns="http://www.w3.org/2000/svg" width="1920" height="1080" viewBox="0 0 1920 1080" data-theme="light">
  <style>
        @font-face {
            font-family: 'Inter';
            src: url('assets/fonts/Inter-Regular.ttf') format('truetype');
            font-weight: 400;
            font-style: normal;
            font-display: swap;
        }
        @font-face {
            font-family: 'Inter';
            src: url('assets/fonts/Inter-Bold.ttf') format('truetype');
            font-weight: 600;
            font-style: normal;
            font-display: swap;
        }
        @font-face {
            font-family: 'Inter';
            src: url('assets/fonts/Inter-Bold.ttf') format('truetype');
            font-weight: 800;
            font-style: normal;
            font-display: swap;
        }
        
:root {
    --background: #f8fafc;
    --panel: #ffffff;
    --primary-text: #0f172a;
    --muted-text: #64748b;
    --inverse-text: #ffffff;
    --border: #e2e8f0;
    --shadow-color: #000000;
    --icon-pad-bg: #1e293b;
    --art-glow: #0891b2;
    --art-glow-opacity: 0.10;
    --art-sheen: #ffffff;
    --art-sheen-opacity: 0.34;
    --art-shadow: #0f172a;
    --art-shadow-opacity: 0.14;
    --art-muted-line: #94a3b8;
    --art-panel-tint: #f1f5f9;
    --font-family: 'Inter', 'Segoe UI', 'Kalam', Roboto, Helvetica, Arial, sans-serif;
    --radius-xl: 16px;
    --font-family-headline: 'Inter', 'Segoe UI', 'Kalam', Roboto, Helvetica, Arial, sans-serif;
    --font-family-body: 'Inter', 'Segoe UI', 'Kalam', Roboto, Helvetica, Arial, sans-serif;
    --font-heading: 'Inter', 'Segoe UI', 'Kalam', Roboto, Helvetica, Arial, sans-serif;
    --font-body: 'Inter', 'Segoe UI', 'Kalam', Roboto, Helvetica, Arial, sans-serif;
    --font-size-h1: 56px;
    --font-size-h2: 40px;
    --font-size-h3: 28px;
    --font-size-body: 24px;
    --font-size-caption: 18px;
    --secondary-text: var(--muted-text);
    --panel-border: var(--border);
    --font-weight-normal: 400;
    --font-weight-medium: 500;
    --font-weight-semibold: 600;
    --font-weight-bold: 700;
    --spacing-gutter-pct: 0.07;
    --spacing-top-pct: 0.15;
    --spacing-bottom-pct: 0.07;
    --spacing-title-y-pct: 0.055;
    --accent-1: #d97706;
    --accent-2: #ea580c;
    --accent-3: #dc2626;
    --accent-4: #65a30d;
    --accent-5: #16a34a;
    --accent-6: #92400e;
}
:root[data-theme="dark"] {
    --background: #0f172a;
    --panel: #1e293b;
    --primary-text: #f1f5f9;
    --muted-text: #94a3b8;
    --inverse-text: #0f172a;
    --border: #334155;
    --shadow-color: #000000;
    --icon-pad-bg: #1e293b;
    --art-glow: #7dd3fc;
    --art-glow-opacity: 0.18;
    --art-sheen: #ffffff;
    --art-sheen-opacity: 0.18;
    --art-shadow: #000000;
    --art-shadow-opacity: 0.28;
    --art-muted-line: #64748b;
    --art-panel-tint: #1e293b;
    --accent-1: #fbbf24;
    --accent-2: #fb923c;
    --accent-3: #f87171;
    --accent-4: #a3e635;
    --accent-5: #4ade80;
    --accent-6: #d4a574;
}
:root[data-theme="light"] {
    --background: #f8fafc;
    --panel: #ffffff;
    --primary-text: #0f172a;
    --muted-text: #64748b;
    --inverse-text: #ffffff;
    --border: #e2e8f0;
    --shadow-color: #000000;
    --icon-pad-bg: #1e293b;
    --art-glow: #0891b2;
    --art-glow-opacity: 0.10;
    --art-sheen: #ffffff;
    --art-sheen-opacity: 0.34;
    --art-shadow: #0f172a;
    --art-shadow-opacity: 0.14;
    --art-muted-line: #94a3b8;
    --art-panel-tint: #f1f5f9;
    --accent-1: #d97706;
    --accent-2: #ea580c;
    --accent-3: #dc2626;
    --accent-4: #65a30d;
    --accent-5: #16a34a;
    --accent-6: #92400e;
}</style>
  <rect x="0" y="0" width="1.92E+3" height="1.08E+3" fill="#252a34" stroke="none" id="programmatic_background"/>
  <line id="HEADER_DECOR" x1="960.0" x2="1080.0" y1="135.0" y2="135.0" stroke="var(--accent-1)" stroke-width="6" stroke-linecap="round"/>
  <defs>
    <pattern id="svg9ec5e55f-napkin-hatch" patternUnits="userSpaceOnUse" width="12" height="12">
      <path d="M -3 12 L 12 -3 M 0 15 L 15 0" fill="none" stroke="var(--primary-text)" stroke-width="1" stroke-opacity="0.05"/>
    </pattern>
    <filter id="svg9ec5e55f-shadow" x="-30%" y="-30%" width="160%" height="160%">
      <feDropShadow dx="0" dy="2" stdDeviation="3" flood-color="#000000" flood-opacity="0.08"/>
      <feDropShadow dx="0" dy="6" stdDeviation="10" flood-color="#000000" flood-opacity="0.12"/>
    </filter>
    <marker id="svg9ec5e55f-arrowhead" markerWidth="10" markerHeight="10" refX="9" refY="5" orient="auto">
      <path d="M 0 0 L 10 5 L 0 10 Z" fill="var(--muted-text)"/>
    </marker>
    <filter id="svg9ec5e55f-text-glow" x="-20%" y="-20%" width="140%" height="140%">
      <feDropShadow dx="0" dy="0" stdDeviation="2" flood-color="#000000" flood-opacity="0.4"/>
    </filter>
    <radialGradient id="svg9ec5e55f-universal-edge-vignette" cx="50%" cy="50%" r="72%">
      <stop offset="0%" stop-color="var(--background)" stop-opacity="0"/>
      <stop offset="72%" stop-color="var(--background)" stop-opacity="0.12"/>
      <stop offset="100%" stop-color="var(--primary-text)" stop-opacity="0.08"/>
    </radialGradient>
    <linearGradient id="svg9ec5e55f-universal-surface-sheen" x1="0%" y1="0%" x2="100%" y2="100%">
      <stop offset="0%" stop-color="var(--art-sheen)" stop-opacity="var(--art-sheen-opacity)"/>
      <stop offset="46%" stop-color="var(--art-sheen)" stop-opacity="0.035"/>
      <stop offset="100%" stop-color="var(--art-panel-tint)" stop-opacity="0.14"/>
    </linearGradient>
    <radialGradient id="svg9ec5e55f-universal-icon-aura" cx="50%" cy="42%" r="64%">
      <stop offset="0%" stop-color="var(--art-glow)" stop-opacity="var(--art-glow-opacity)"/>
      <stop offset="100%" stop-color="var(--background)" stop-opacity="0"/>
    </radialGradient>
  </defs>
  <rect width="100%" height="100%" fill="var(--background)" id="CANVAS_BG"/>
  <rect width="100%" height="100%" fill="url(#svg9ec5e55f-napkin-hatch)"/>
  <rect id="UNIVERSAL_EDGE_VIGNETTE" width="100%" height="100%" fill="url(#svg9ec5e55f-universal-edge-vignette)" opacity="0.62"/>
  <text id="TITLE" x="960.0" y="59" text-anchor="middle" font-weight="800" font-size="56" fill="#0f172a" style="font-size: 60px; font-family: Inter, Segoe UI, Kalam, Roboto, Helvetica, Arial, sans-serif; font-weight: 700; letter-spacing:-1.2px;" data-final-font-size="60">
    <tspan x="960.0" dy="68.00px">Project Serpo Controversy</tspan>
  </text>
  <rect id="TITLE_FRAME" x="134" y="59" width="1652" height="103" fill="none"/>
  <g id="DIAGRAM_MAIN" transform="translate(0, 70)">
    <line x1="520.0" y1="250.0" x2="525.0" y2="250.0" stroke="var(--muted-text)" stroke-width="4" stroke-dasharray="8 8" opacity="0.45" marker-end="url(#svg9ec5e55f-arrowhead)"/>
    <line x1="975.0" y1="250.0" x2="980.0" y2="250.0" stroke="var(--muted-text)" stroke-width="4" stroke-dasharray="8 8" opacity="0.45" marker-end="url(#svg9ec5e55f-arrowhead)"/>
    <path d="M 1430.0 250.0 C 1585.0 320.0, 142.5 600.0, 297.5 670.0" fill="none" stroke="var(--muted-text)" stroke-width="4" stroke-dasharray="8 8" opacity="0.45" marker-end="url(#svg9ec5e55f-arrowhead)"/>
    <line x1="747.5" y1="670.0" x2="752.5" y2="670.0" stroke="var(--muted-text)" stroke-width="4" stroke-dasharray="8 8" opacity="0.45" marker-end="url(#svg9ec5e55f-arrowhead)"/>
    <g transform="translate(295.0, 250.0)">
      <rect id="ITEM_1_BG" x="-210" y="-130" width="420" height="290" rx="22" fill="var(--panel)" stroke="var(--accent-1)" stroke-width="3" fill-opacity="0.92" filter="url(#svg9ec5e55f-shadow)"/>
      <circle cx="-175" cy="-95" r="6" fill="var(--muted-text)" opacity="0.35"/>
      <circle cx="-150" cy="-95" r="6" fill="var(--muted-text)" opacity="0.35"/>
      <circle cx="-125" cy="-95" r="6" fill="var(--muted-text)" opacity="0.35"/>
      <circle id="ITEM_1_PAD" cx="0" cy="-30" r="48" fill="var(--icon-pad-bg)" stroke="var(--primary-text)" opacity="0.9" fill-opacity="0.9" stroke-width="2"/>
      <circle id="ITEM_1_PAD_INNER" cx="0" cy="-30" r="37.44" fill="var(--accent-6)" fill-opacity="0.22"/>
      <circle cx="0" cy="-30" r="38" fill="none" stroke="var(--accent-1)" stroke-width="3" stroke-dasharray="6 4"/>
      <g id="ITEM_1_ICON" transform="translate(-38, -68)" data-icon-size="76" stroke-dasharray="6 4">
        <g transform="translate(-5.380530973451328,-4.707964601769915) scale(2.690265486725664)">
          <path d="M29.2001 2.94972C28.253 2.00263 26.4999 1.9525 25.3817 2.52547C24.4693 2.83877 23.5081 3.19209 22.5278 3.58828L22.5383 3.59883C19.9627 4.69286 16.1108 6.63769 13.0279 9.49984C10.8637 11.5091 9.62366 13.0559 8.79313 14.4647L3.49489 16.4149C2.80991 16.6671 2.6171 17.5444 3.13322 18.0605C6.84572 21.773 10.5582 25.4855 14.2707 29.198C14.7868 29.7141 15.6641 29.5213 15.9163 28.8363L18.1197 22.8504C19.7284 21.8921 21.3425 20.6853 23.0279 18.9999C25.4183 16.6095 27.3936 12.4408 28.5413 9.64309L28.5496 9.65145C28.9506 8.66094 29.3079 7.68963 29.6243 6.76812C30.1973 5.64991 30.3642 4.11384 29.2001 2.94972Z" fill="#CA0B4A"/>
          <path d="M23.2987 4.3645C20.7818 5.4041 16.8206 7.34324 13.7083 10.2327C11.6937 12.103 10.5374 13.5272 9.76899 14.7821C8.99995 16.0381 8.59391 17.1628 8.10621 18.5226L8.10371 18.5296C7.93354 19.0041 7.75311 19.5072 7.54517 20.0441L12.1006 24.5996C15.7031 23.1209 18.8412 21.7724 22.3208 18.2928C24.6722 15.9414 26.6597 11.6505 27.7751 8.87168L23.2987 4.3645Z" fill="#F4F4F4"/>
          <path d="M24.5278 11.25C24.5278 13.0449 23.0727 14.5 21.2778 14.5C19.4828 14.5 18.0278 13.0449 18.0278 11.25C18.0278 9.45507 19.4828 8 21.2778 8C23.0727 8 24.5278 9.45507 24.5278 11.25Z" fill="#9B9B9B"/>
          <path d="M23.5278 11.25C23.5278 12.4926 22.5204 13.5 21.2778 13.5C20.0351 13.5 19.0278 12.4926 19.0278 11.25C19.0278 10.0074 20.0351 9 21.2778 9C22.5204 9 23.5278 10.0074 23.5278 11.25Z" fill="#83CBFF"/>
          <path d="M2.45122 29.6108C1.74411 28.9037 2.02779 24 4.52777 23C4.52777 23 7.02777 22 8.63878 23.6005C10.2498 25.2011 9.52776 26.9999 9.52776 26.9999C8.82068 29.1212 5.81033 29.9645 5.45679 29.6109C5.26153 29.4157 5.61314 29.0602 5.45679 28.9038C5.30045 28.7475 5.05904 28.9259 4.39613 29.2574C3.92473 29.4931 2.73406 29.8937 2.45122 29.6108Z" fill="#FF8257"/>
          <path d="M6.08839 21.0607C6.67417 20.4749 7.62392 20.4749 8.20971 21.0607L11.7452 24.5962C12.331 25.182 12.331 26.1317 11.7452 26.7175C11.1595 27.3033 10.2097 27.3033 9.62392 26.7175L6.08839 23.182C5.5026 22.5962 5.5026 21.6465 6.08839 21.0607Z" fill="#533566"/>
          <path d="M15.5351 18.722C15.977 17.5214 14.8098 16.3542 13.6092 16.7961L6.49489 19.4149C5.80991 19.6671 5.6171 20.5444 6.13322 21.0605L11.2707 26.198C11.7868 26.7141 12.6641 26.5213 12.9163 25.8363L15.5351 18.722Z" fill="#F92F60"/>
        </g>
      </g>
      <text id="ITEM_1_HEAD" x="0.0" y="40.0" text-anchor="middle" font-weight="700" font-size="27" fill="var(--accent-6)" data-bg-id="ITEM_1_BG" fill-opacity="1.0" style="font-size: 30px; font-family: Inter, Segoe UI, Kalam, Roboto, Helvetica, Arial, sans-serif; font-weight: 700; letter-spacing:-0.4px;" data-final-font-size="30">
        <tspan x="0.0" dy="33.25px">Exchange Program</tspan>
      </text>
      <rect id="ITEM_1_HEAD_FRAME" x="-190" y="40" width="380" height="50" fill="none"/>
      <text id="ITEM_1_BODY" x="0.0" y="95.0" text-anchor="middle" font-size="19.5" fill="var(--primary-text)" data-bg-id="ITEM_1_BG" style="font-size: 26px; font-family: Inter, Segoe UI, Kalam, Roboto, Helvetica, Arial, sans-serif; font-weight: 400;" data-final-font-size="26">
        <tspan x="0.0" dy="32.84px">Claims of 1965 human-alien</tspan>
        <tspan x="0.0" dy="29.90px">exchange program</tspan>
      </text>
      <rect id="ITEM_1_BODY_FRAME" x="-190" y="95" width="380" height="120" fill="none"/>
    </g>
    <g transform="translate(750.0, 250.0)">
      <rect id="ITEM_2_BG" x="-210" y="-130" width="420" height="290" rx="22" fill="var(--panel)" stroke="var(--accent-2)" stroke-width="3" fill-opacity="0.92" filter="url(#svg9ec5e55f-shadow)"/>
      <circle cx="-175" cy="-95" r="6" fill="var(--muted-text)" opacity="0.35"/>
      <circle cx="-150" cy="-95" r="6" fill="var(--muted-text)" opacity="0.35"/>
      <circle cx="-125" cy="-95" r="6" fill="var(--muted-text)" opacity="0.35"/>
      <circle id="ITEM_2_PAD" cx="0" cy="-30" r="48" fill="var(--icon-pad-bg)" stroke="var(--primary-text)" opacity="0.9" fill-opacity="0.9" stroke-width="2"/>
      <circle id="ITEM_2_PAD_INNER" cx="0" cy="-30" r="37.44" fill="var(--accent-1)" fill-opacity="0.22"/>
      <circle cx="0" cy="-30" r="38" fill="none" stroke="var(--accent-2)" stroke-width="3" stroke-dasharray="6 4"/>
      <g id="ITEM_2_ICON" transform="translate(-38, -68)" data-icon-size="76" stroke-dasharray="6 4">
        <g transform="translate(-5.428571428571429,-9.500000000000004) scale(2.7142857142857144)">
          <path d="M2 15H30V28C30 29.1046 29.1046 30 28 30H4C2.89543 30 2 29.1046 2 28V15Z" fill="#8C5543"/>
          <path d="M11.1 9H4C2.89543 9 2 9.89543 2 11V15C2 17.2091 3.79086 19 6 19H26C28.2091 19 30 17.2091 30 15V11C30 9.89543 29.1046 9 28 9H20.9C20.4367 6.71776 18.419 5 16 5C13.581 5 11.5633 6.71776 11.1 9ZM13.1707 9C13.5825 7.83481 14.6938 7 16 7C17.3062 7 18.4175 7.83481 18.8293 9H13.1707Z" fill="#6D4534"/>
          <path d="M13 19L16 18L19 19V21C19 21.5523 18.5523 22 18 22H14C13.4477 22 13 21.5523 13 21V19Z" fill="#D3883E"/>
          <path d="M13 18C13 17.4477 13.4477 17 14 17H18C18.5523 17 19 17.4477 19 18V19H13V18Z" fill="#E19747"/>
        </g>
      </g>
      <text id="ITEM_2_HEAD" x="0.0" y="40.0" text-anchor="middle" font-weight="700" font-size="27" fill="var(--primary-text)" data-bg-id="ITEM_2_BG" fill-opacity="1.0" style="font-size: 30px; font-family: Inter, Segoe UI, Kalam, Roboto, Helvetica, Arial, sans-serif; font-weight: 700; letter-spacing:-0.4px;" data-final-font-size="30">
        <tspan x="0.0" dy="33.25px">Record Access</tspan>
      </text>
      <rect id="ITEM_2_HEAD_FRAME" x="-190" y="40" width="380" height="50" fill="none"/>
      <text id="ITEM_2_BODY" x="0.0" y="95.0" text-anchor="middle" font-size="19.5" fill="var(--primary-text)" data-bg-id="ITEM_2_BG" style="font-size: 26px; font-family: Inter, Segoe UI, Kalam, Roboto, Helvetica, Arial, sans-serif; font-weight: 400;" data-final-font-size="26">
        <tspan x="0.0" dy="32.84px">Doty claims access</tspan>
        <tspan x="0.0" dy="29.90px">to supporting information</tspan>
      </text>
      <rect id="ITEM_2_BODY_FRAME" x="-190" y="95" width="380" height="120" fill="none"/>
    </g>
    <g transform="translate(1205.0, 250.0)">
      <rect id="ITEM_3_BG" x="-210" y="-130" width="420" height="290" rx="22" fill="var(--panel)" stroke="var(--accent-3)" stroke-width="3" fill-opacity="0.92" filter="url(#svg9ec5e55f-shadow)"/>
      <circle cx="-175" cy="-95" r="6" fill="var(--muted-text)" opacity="0.35"/>
      <circle cx="-150" cy="-95" r="6" fill="var(--muted-text)" opacity="0.35"/>
      <circle cx="-125" cy="-95" r="6" fill="var(--muted-text)" opacity="0.35"/>
      <circle id="ITEM_3_PAD" cx="0" cy="-30" r="48" fill="var(--icon-pad-bg)" stroke="var(--primary-text)" opacity="0.9" fill-opacity="0.9" stroke-width="2"/>
      <circle id="ITEM_3_PAD_INNER" cx="0" cy="-30" r="37.44" fill="var(--accent-2)" fill-opacity="0.22"/>
      <circle cx="0" cy="-30" r="38" fill="none" stroke="var(--accent-3)" stroke-width="3" stroke-dasharray="6 4"/>
      <g id="ITEM_3_ICON" transform="translate(-38, -68)" data-icon-size="76" stroke-dasharray="6 4">
        <g transform="translate(-4.035398230088496,-6.053097345132744) scale(2.690265486725664)">
          <path d="M3.27393 28.0227C3.46919 27.8274 3.78578 27.8274 3.98104 28.0227C4.1763 28.2179 4.1763 28.5345 3.98104 28.7298L2.56683 30.144C2.37156 30.3392 2.05498 30.3392 1.85972 30.144C1.66446 29.9487 1.66446 29.6321 1.85972 29.4369L3.27393 28.0227Z" fill="#402A32"/>
          <path d="M27.9001 8.10118C28.1994 7.95818 28.48 7.7627 28.7279 7.51475C29.8995 6.34318 29.8995 4.44369 28.7279 3.27211C27.5563 2.10054 25.6569 2.10054 24.4853 3.27211C24.2373 3.52006 24.0418 3.80062 23.8989 4.09998L23.7782 3.97928L13.5691 12.1405C13.5691 13.3175 12.5867 14.2613 11.4102 14.2259L11.3453 14.2909C11.1201 14.516 10.917 14.7621 10.7387 15.0258L3.62561 25.546L4.57008 27.5017L6.45404 28.3745L16.9743 21.2614C17.238 21.083 17.4841 20.8799 17.7092 20.6548L17.7785 20.5855L17.7879 20.2879C17.8223 19.1986 18.7607 18.3595 19.8471 18.4465L28.0208 8.22192L27.9001 8.10118Z" fill="#0074BA"/>
          <path d="M29.435 8.2218L24.4853 3.27209L23.7782 3.9792L28.7279 8.92892L23.4246 14.2322C23.2294 14.4275 23.2294 14.7441 23.4246 14.9393C23.6199 15.1346 23.9365 15.1346 24.1317 14.9393L29.435 9.63602C29.8256 9.24549 29.8256 8.61233 29.435 8.2218Z" fill="#F9C23C"/>
          <path d="M11.4038 14.2323L13.2026 12.4335L13.5611 12.1469L19.8531 18.439L19.5665 18.7975L17.7677 20.5963L11.4038 14.2323Z" fill="#F9C23C"/>
          <path d="M6.45225 28.3762L3.62382 25.5477L3.27027 25.9013C2.48922 26.6823 2.48922 27.9487 3.27027 28.7297C4.05131 29.5108 5.31764 29.5108 6.09869 28.7297L6.45225 28.3762Z" fill="#F9C23C"/>
        </g>
      </g>
      <text id="ITEM_3_HEAD" x="0.0" y="40.0" text-anchor="middle" font-weight="700" font-size="27" fill="var(--primary-text)" data-bg-id="ITEM_3_BG" fill-opacity="1.0" style="font-size: 30px; font-family: Inter, Segoe UI, Kalam, Roboto, Helvetica, Arial, sans-serif; font-weight: 700; letter-spacing:-0.4px;" data-final-font-size="30">
        <tspan x="0.0" dy="33.25px">Narrative Shift</tspan>
      </text>
      <rect id="ITEM_3_HEAD_FRAME" x="-190" y="40" width="380" height="50" fill="none"/>
      <text id="ITEM_3_BODY" x="0.0" y="95.0" text-anchor="middle" font-size="19.5" fill="var(--primary-text)" data-bg-id="ITEM_3_BG" style="font-size: 26px; font-family: Inter, Segoe UI, Kalam, Roboto, Helvetica, Arial, sans-serif; font-weight: 400;" data-final-font-size="26">
        <tspan x="0.0" dy="26.86px">Story changes repeatedly</tspan>
        <tspan x="0.0" dy="29.90px">attracting fabrication</tspan>
        <tspan x="0.0" dy="29.90px">accusations</tspan>
      </text>
      <rect id="ITEM_3_BODY_FRAME" x="-190" y="95" width="380" height="120" fill="none"/>
    </g>
    <g transform="translate(522.5, 670.0)">
      <rect id="ITEM_4_BG" x="-210" y="-130" width="420" height="290" rx="22" fill="var(--panel)" stroke="var(--accent-4)" stroke-width="3" fill-opacity="0.92" filter="url(#svg9ec5e55f-shadow)"/>
      <circle cx="-175" cy="-95" r="6" fill="var(--muted-text)" opacity="0.35"/>
      <circle cx="-150" cy="-95" r="6" fill="var(--muted-text)" opacity="0.35"/>
      <circle cx="-125" cy="-95" r="6" fill="var(--muted-text)" opacity="0.35"/>
      <circle id="ITEM_4_PAD" cx="0" cy="-30" r="48" fill="var(--icon-pad-bg)" stroke="var(--primary-text)" opacity="0.9" fill-opacity="0.9" stroke-width="2"/>
      <circle id="ITEM_4_PAD_INNER" cx="0" cy="-30" r="37.44" fill="var(--accent-3)" fill-opacity="0.22"/>
      <circle cx="0" cy="-30" r="38" fill="none" stroke="var(--accent-4)" stroke-width="3" stroke-dasharray="6 4"/>
      <g id="ITEM_4_ICON" transform="translate(-38, -68)" data-icon-size="76" stroke-dasharray="6 4">
        <g transform="translate(-13.74468085106383,-13.74468085106383) scale(4.3120567375886525)" vector-effect="non-scaling-stroke" stroke-width="2.62" stroke-linecap="round" stroke-linejoin="round" stroke-opacity="1.0">
          <path d="M20 20L15 15M15 15V19M15 15H19" stroke="#f1f5f9" vector-effect="non-scaling-stroke" fill="none"/>
          <path d="M4 20L9 15M9 15V19M9 15H5" stroke="#f1f5f9" vector-effect="non-scaling-stroke" fill="none"/>
          <path d="M20 4L15 9M15 9V5M15 9H19" stroke="#f1f5f9" vector-effect="non-scaling-stroke" fill="none"/>
          <path d="M4 4L9 9M9 9V5M9 9H5" stroke="#f1f5f9" vector-effect="non-scaling-stroke" fill="none"/>
        </g>
      </g>
      <text id="ITEM_4_HEAD" x="0.0" y="40.0" text-anchor="middle" font-weight="700" font-size="27" fill="var(--accent-3)" data-bg-id="ITEM_4_BG" fill-opacity="1.0" style="font-size: 30px; font-family: Inter, Segoe UI, Kalam, Roboto, Helvetica, Arial, sans-serif; font-weight: 700; letter-spacing:-0.4px;" data-final-font-size="30">
        <tspan x="0.0" dy="33.25px">Confidence Collapse</tspan>
      </text>
      <rect id="ITEM_4_HEAD_FRAME" x="-190" y="40" width="380" height="50" fill="none"/>
      <text id="ITEM_4_BODY" x="0.0" y="95.0" text-anchor="middle" font-size="19.5" fill="var(--primary-text)" data-bg-id="ITEM_4_BG" style="font-size: 26px; font-family: Inter, Segoe UI, Kalam, Roboto, Helvetica, Arial, sans-serif; font-weight: 400;" data-final-font-size="26">
        <tspan x="0.0" dy="32.84px">Critics link Serpo to weak</tspan>
        <tspan x="0.0" dy="29.90px">evidential basis</tspan>
      </text>
      <rect id="ITEM_4_BODY_FRAME" x="-190" y="95" width="380" height="120" fill="none"/>
    </g>
    <g transform="translate(977.5, 670.0)">
      <rect id="ITEM_5_BG" x="-210" y="-130" width="420" height="290" rx="22" fill="var(--panel)" stroke="var(--accent-5)" stroke-width="3" fill-opacity="0.92" filter="url(#svg9ec5e55f-shadow)"/>
      <circle cx="-175" cy="-95" r="6" fill="var(--muted-text)" opacity="0.35"/>
      <circle cx="-150" cy="-95" r="6" fill="var(--muted-text)" opacity="0.35"/>
      <circle cx="-125" cy="-95" r="6" fill="var(--muted-text)" opacity="0.35"/>
      <circle id="ITEM_5_PAD" cx="0" cy="-30" r="48" fill="var(--icon-pad-bg)" stroke="var(--primary-text)" opacity="0.9" fill-opacity="0.9" stroke-width="2"/>
      <circle id="ITEM_5_PAD_INNER" cx="0" cy="-30" r="37.44" fill="var(--accent-4)" fill-opacity="0.22"/>
      <circle cx="0" cy="-30" r="38" fill="none" stroke="var(--accent-5)" stroke-width="3" stroke-dasharray="6 4"/>
      <g id="ITEM_5_ICON" transform="translate(-38, -68)" data-icon-size="76" stroke-dasharray="6 4">
        <g transform="translate(-2.216666666666665,-2.533333333333333) scale(0.15833333333333333)" vector-effect="non-scaling-stroke" fill="#f1f5f9" fill-opacity="1.0" stroke="none">
          <path fill="#f1f5f9" d="M254.28 17.313c-81.048 0-146.624 65.484-146.624 146.406V236h49.594v-69.094c0-53.658 43.47-97.187 97.03-97.187c53.563 0 97.032 44.744 97.032 97.186V236h49.594v-72.28c0-78.856-65.717-146.407-146.625-146.407zM85.157 254.688c-14.61 22.827-22.844 49.148-22.844 76.78c0 88.358 84.97 161.5 191.97 161.5c106.998 0 191.968-73.142 191.968-161.5c0-27.635-8.26-53.95-22.875-76.78H85.155zM254 278.625c22.34 0 40.875 17.94 40.875 40.28c0 16.756-10.6 31.23-25.125 37.376l32.72 98.126h-96.376l32.125-98.125c-14.526-6.145-24.532-20.62-24.532-37.374c0-22.338 17.972-40.28 40.312-40.28z" vector-effect="non-scaling-stroke" stroke="none"/>
        </g>
      </g>
      <text id="ITEM_5_HEAD" x="0.0" y="40.0" text-anchor="middle" font-weight="700" font-size="27" fill="var(--primary-text)" data-bg-id="ITEM_5_BG" fill-opacity="1.0" style="font-size: 30px; font-family: Inter, Segoe UI, Kalam, Roboto, Helvetica, Arial, sans-serif; font-weight: 700; letter-spacing:-0.4px;" data-final-font-size="30">
        <tspan x="0.0" dy="33.25px">Falsifiability</tspan>
      </text>
      <rect id="ITEM_5_HEAD_FRAME" x="-190" y="40" width="380" height="50" fill="none"/>
      <text id="ITEM_5_BODY" x="0.0" y="95.0" text-anchor="middle" font-size="19.5" fill="var(--primary-text)" data-bg-id="ITEM_5_BG" style="font-size: 26px; font-family: Inter, Segoe UI, Kalam, Roboto, Helvetica, Arial, sans-serif; font-weight: 400;" data-final-font-size="26">
        <tspan x="0.0" dy="32.84px">Every inconsistency explained</tspan>
        <tspan x="0.0" dy="29.90px">by secrecy rules</tspan>
      </text>
      <rect id="ITEM_5_BODY_FRAME" x="-190" y="95" width="380" height="120" fill="none"/>
    </g>
  </g>
</svg>
